# xmcd CD database file
#
# Track frame offsets:
#	150
#	14969
#	25738
#	39659
#	56112
#	73434
#	89602
#	102426
#	118446
#	131287
#	148511
#	162239
#	176495
#	189385
#	210446
#	226087
#	238819
#
# Disc length: 3365 seconds
#
# Revision: 0
# Processed by: cddbd v1.5.2PL0 Copyright (c) Steve Scherf et al.
# Submitted via: CDex 1.50beta10
#
DISCID=fb0d2311
DTITLE=Só Vanerão Vol. 3 - Só Vanerão Vol. 3
DYEAR=2003
DGENRE=Country
TTITLE0=Aconchego dos gaudérios
TTITLE1=Do Paraná ao Rio Grande
TTITLE2=Um tal de Mário Cuiudo
TTITLE3=Segredos da minha gaita
TTITLE4=Baile debaixo da Lua
TTITLE5=Fandango de Fronteira
TTITLE6=Bombachào
TTITLE7=Cigana
TTITLE8=Abrindo Cancha
TTITLE9=Marcação
TTITLE10=Vanerào de duas Voltas
TTITLE11=Por cima da Baixaria
TTITLE12=Louco por Bailanta
TTITLE13=Chinica
TTITLE14=Rodeio no Rincão do Pirapó
TTITLE15=Bailanta da Polaca
TTITLE16=Vô Jaime
EXTD=YEAR: 2003
EXTT0=
EXTT1=
EXTT2=
EXTT3=
EXTT4=
EXTT5=
EXTT6=
EXTT7=
EXTT8=
EXTT9=
EXTT10=
EXTT11=
EXTT12=
EXTT13=
EXTT14=
EXTT15=
EXTT16=
PLAYORDER=
